<?xml version="1.0" encoding="UTF-8" standalone="no"?>
<!DOCTYPE svg PUBLIC "-//W3C//DTD SVG 1.1//EN"
 "http://www.w3.org/Graphics/SVG/1.1/DTD/svg11.dtd">
<!-- Generated by graphviz version 5.0.0 (20220707.1540)
 -->
<!-- Title: UmlClassDiagram Pages: 1 -->
<svg width="2074pt" height="1502pt"
 viewBox="0.00 0.00 2073.88 1502.40" xmlns="http://www.w3.org/2000/svg" xmlns:xlink="http://www.w3.org/1999/xlink">
<g id="graph0" class="graph" transform="scale(1 1) rotate(0) translate(4 1498.4)">
<title>UmlClassDiagram</title>
<polygon fill="white" stroke="transparent" points="-4,4 -4,-1498.4 2069.88,-1498.4 2069.88,4 -4,4"/>
<!-- 0 -->
<g id="node1" class="node">
<title>0</title>
<polygon fill="#f2f2f2" stroke="black" points="189.89,-269.3 189.89,-461.3 483.15,-461.3 483.15,-269.3 189.89,-269.3"/>
<text text-anchor="middle" x="336.52" y="-444.7" font-family="Times,serif" font-size="14.00">Migrations</text>
<text text-anchor="middle" x="336.52" y="-427.9" font-family="Times,serif" font-size="14.00">contracts/Migrations.sol</text>
<polyline fill="none" stroke="black" points="189.89,-419.7 483.15,-419.7 "/>
<text text-anchor="start" x="197.89" y="-403.1" font-family="Times,serif" font-size="14.00">Public:</text>
<text text-anchor="start" x="197.89" y="-386.3" font-family="Times,serif" font-size="14.00"> &#160;&#160;owner: address</text>
<text text-anchor="start" x="197.89" y="-369.5" font-family="Times,serif" font-size="14.00"> &#160;&#160;last_completed_migration: uint</text>
<polyline fill="none" stroke="black" points="189.89,-361.3 483.15,-361.3 "/>
<text text-anchor="start" x="197.89" y="-344.7" font-family="Times,serif" font-size="14.00">Public:</text>
<text text-anchor="start" x="197.89" y="-327.9" font-family="Times,serif" font-size="14.00"> &#160;&#160;&#160;&lt;&lt;modifier&gt;&gt; restricted()</text>
<text text-anchor="start" x="197.89" y="-311.1" font-family="Times,serif" font-size="14.00"> &#160;&#160;&#160;constructor()</text>
<text text-anchor="start" x="197.89" y="-294.3" font-family="Times,serif" font-size="14.00"> &#160;&#160;&#160;setCompleted(completed: uint) &lt;&lt;restricted&gt;&gt;</text>
<text text-anchor="start" x="197.89" y="-277.5" font-family="Times,serif" font-size="14.00"> &#160;&#160;&#160;upgrade(new_address: address) &lt;&lt;restricted&gt;&gt;</text>
</g>
<!-- 0&#45;&gt;0 -->
<g id="edge1" class="edge">
<title>0&#45;&gt;0</title>
<path fill="none" stroke="black" stroke-dasharray="5,2" d="M408.45,-269.07C455.56,-242.99 501.15,-275.07 501.15,-365.3 501.15,-449.72 461.25,-483.23 417.53,-465.85"/>
<polygon fill="black" stroke="black" points="418.98,-462.66 408.45,-461.53 415.98,-468.98 418.98,-462.66"/>
</g>
<!-- 1 -->
<g id="node2" class="node">
<title>1</title>
<polygon fill="#f2f2f2" stroke="black" points="318.76,-788.3 318.76,-1064.3 646.28,-1064.3 646.28,-788.3 318.76,-788.3"/>
<text text-anchor="middle" x="482.52" y="-1047.7" font-family="Times,serif" font-size="14.00">ConsumerRole</text>
<text text-anchor="middle" x="482.52" y="-1030.9" font-family="Times,serif" font-size="14.00">contracts/coffeeaccesscontrol/ConsumerRole.sol</text>
<polyline fill="none" stroke="black" points="318.76,-1022.7 646.28,-1022.7 "/>
<text text-anchor="start" x="326.76" y="-1006.1" font-family="Times,serif" font-size="14.00">Private:</text>
<text text-anchor="start" x="326.76" y="-989.3" font-family="Times,serif" font-size="14.00"> &#160;&#160;consumers: Roles.Role</text>
<polyline fill="none" stroke="black" points="318.76,-981.1 646.28,-981.1 "/>
<text text-anchor="start" x="326.76" y="-964.5" font-family="Times,serif" font-size="14.00">Internal:</text>
<text text-anchor="start" x="326.76" y="-947.7" font-family="Times,serif" font-size="14.00"> &#160;&#160;&#160;_addConsumer(account: address)</text>
<text text-anchor="start" x="326.76" y="-930.9" font-family="Times,serif" font-size="14.00"> &#160;&#160;&#160;_removeConsumer(account: address)</text>
<text text-anchor="start" x="326.76" y="-914.1" font-family="Times,serif" font-size="14.00">Public:</text>
<text text-anchor="start" x="326.76" y="-897.3" font-family="Times,serif" font-size="14.00"> &#160;&#160;&#160;&lt;&lt;event&gt;&gt; ConsumerAdded(account: address)</text>
<text text-anchor="start" x="326.76" y="-880.5" font-family="Times,serif" font-size="14.00"> &#160;&#160;&#160;&lt;&lt;event&gt;&gt; ConsumerRemove(account: address)</text>
<text text-anchor="start" x="326.76" y="-863.7" font-family="Times,serif" font-size="14.00"> &#160;&#160;&#160;&lt;&lt;modifier&gt;&gt; onlyConsumer()</text>
<text text-anchor="start" x="326.76" y="-846.9" font-family="Times,serif" font-size="14.00"> &#160;&#160;&#160;constructor()</text>
<text text-anchor="start" x="326.76" y="-830.1" font-family="Times,serif" font-size="14.00"> &#160;&#160;&#160;isConsumer(account: address): bool</text>
<text text-anchor="start" x="326.76" y="-813.3" font-family="Times,serif" font-size="14.00"> &#160;&#160;&#160;addConsumer(account: address) &lt;&lt;onlyConsumer&gt;&gt;</text>
<text text-anchor="start" x="326.76" y="-796.5" font-family="Times,serif" font-size="14.00"> &#160;&#160;&#160;renounceConsumer()</text>
</g>
<!-- 6 -->
<g id="node6" class="node">
<title>6</title>
<polygon fill="#f2f2f2" stroke="black" points="545.31,-1181.3 545.31,-1264.5 781.72,-1264.5 781.72,-1181.3 545.31,-1181.3"/>
<text text-anchor="middle" x="663.52" y="-1247.9" font-family="Times,serif" font-size="14.00">&lt;&lt;Struct&gt;&gt;</text>
<text text-anchor="middle" x="663.52" y="-1231.1" font-family="Times,serif" font-size="14.00">Role</text>
<text text-anchor="middle" x="663.52" y="-1214.3" font-family="Times,serif" font-size="14.00">contracts/coffeeaccesscontrol/Roles.sol</text>
<polyline fill="none" stroke="black" points="545.31,-1206.1 781.72,-1206.1 "/>
<text text-anchor="start" x="553.31" y="-1189.5" font-family="Times,serif" font-size="14.00">bearer: mapping(address=&gt;bool)</text>
</g>
<!-- 1&#45;&gt;6 -->
<g id="edge3" class="edge">
<title>1&#45;&gt;6</title>
<path fill="none" stroke="black" d="M566.93,-1064.68C590.56,-1103.15 614.76,-1142.53 633.02,-1172.25"/>
<polygon fill="black" stroke="black" points="630.27,-1174.47 638.49,-1181.16 636.23,-1170.81 630.27,-1174.47"/>
</g>
<!-- 5 -->
<g id="node7" class="node">
<title>5</title>
<polygon fill="#f2f2f2" stroke="black" points="540.63,-1360.3 540.63,-1493.9 786.4,-1493.9 786.4,-1360.3 540.63,-1360.3"/>
<text text-anchor="middle" x="663.52" y="-1477.3" font-family="Times,serif" font-size="14.00">&lt;&lt;Library&gt;&gt;</text>
<text text-anchor="middle" x="663.52" y="-1460.5" font-family="Times,serif" font-size="14.00">Roles</text>
<text text-anchor="middle" x="663.52" y="-1443.7" font-family="Times,serif" font-size="14.00">contracts/coffeeaccesscontrol/Roles.sol</text>
<polyline fill="none" stroke="black" points="540.63,-1435.5 786.4,-1435.5 "/>
<text text-anchor="start" x="548.63" y="-1418.9" font-family="Times,serif" font-size="14.00">Internal:</text>
<text text-anchor="start" x="548.63" y="-1402.1" font-family="Times,serif" font-size="14.00"> &#160;&#160;&#160;add(role: Role, account: address)</text>
<text text-anchor="start" x="548.63" y="-1385.3" font-family="Times,serif" font-size="14.00"> &#160;&#160;&#160;remove(role: Role, account: address)</text>
<text text-anchor="start" x="548.63" y="-1368.5" font-family="Times,serif" font-size="14.00"> &#160;&#160;&#160;has(role: Role, account: address): bool</text>
</g>
<!-- 1&#45;&gt;5 -->
<g id="edge2" class="edge">
<title>1&#45;&gt;5</title>
<path fill="none" stroke="black" d="M476.64,-1064.68C478.98,-1144.92 492.28,-1245.46 536.52,-1323.8 542.34,-1334.1 549.64,-1343.77 557.79,-1352.73"/>
<polygon fill="black" stroke="black" points="555.38,-1355.28 564.82,-1360.09 560.45,-1350.45 555.38,-1355.28"/>
</g>
<!-- 2 -->
<g id="node3" class="node">
<title>2</title>
<polygon fill="#f2f2f2" stroke="black" points="663.87,-788.3 663.87,-1064.3 999.17,-1064.3 999.17,-788.3 663.87,-788.3"/>
<text text-anchor="middle" x="831.52" y="-1047.7" font-family="Times,serif" font-size="14.00">DistributorRole</text>
<text text-anchor="middle" x="831.52" y="-1030.9" font-family="Times,serif" font-size="14.00">contracts/coffeeaccesscontrol/DistributorRole.sol</text>
<polyline fill="none" stroke="black" points="663.87,-1022.7 999.17,-1022.7 "/>
<text text-anchor="start" x="671.87" y="-1006.1" font-family="Times,serif" font-size="14.00">Private:</text>
<text text-anchor="start" x="671.87" y="-989.3" font-family="Times,serif" font-size="14.00"> &#160;&#160;distributors: Roles.Role</text>
<polyline fill="none" stroke="black" points="663.87,-981.1 999.17,-981.1 "/>
<text text-anchor="start" x="671.87" y="-964.5" font-family="Times,serif" font-size="14.00">Internal:</text>
<text text-anchor="start" x="671.87" y="-947.7" font-family="Times,serif" font-size="14.00"> &#160;&#160;&#160;_addDistributor(account: address)</text>
<text text-anchor="start" x="671.87" y="-930.9" font-family="Times,serif" font-size="14.00"> &#160;&#160;&#160;_removeDistributor(account: address)</text>
<text text-anchor="start" x="671.87" y="-914.1" font-family="Times,serif" font-size="14.00">Public:</text>
<text text-anchor="start" x="671.87" y="-897.3" font-family="Times,serif" font-size="14.00"> &#160;&#160;&#160;&lt;&lt;event&gt;&gt; distributorAdded(account: address)</text>
<text text-anchor="start" x="671.87" y="-880.5" font-family="Times,serif" font-size="14.00"> &#160;&#160;&#160;&lt;&lt;event&gt;&gt; distributorRemoved(account: address)</text>
<text text-anchor="start" x="671.87" y="-863.7" font-family="Times,serif" font-size="14.00"> &#160;&#160;&#160;&lt;&lt;modifier&gt;&gt; onlyDistributor()</text>
<text text-anchor="start" x="671.87" y="-846.9" font-family="Times,serif" font-size="14.00"> &#160;&#160;&#160;constructor()</text>
<text text-anchor="start" x="671.87" y="-830.1" font-family="Times,serif" font-size="14.00"> &#160;&#160;&#160;isDistributor(account: address): bool</text>
<text text-anchor="start" x="671.87" y="-813.3" font-family="Times,serif" font-size="14.00"> &#160;&#160;&#160;addDistributor(account: address) &lt;&lt;onlyDistributor&gt;&gt;</text>
<text text-anchor="start" x="671.87" y="-796.5" font-family="Times,serif" font-size="14.00"> &#160;&#160;&#160;renounceDistributor()</text>
</g>
<!-- 2&#45;&gt;6 -->
<g id="edge5" class="edge">
<title>2&#45;&gt;6</title>
<path fill="none" stroke="black" d="M753.18,-1064.68C731.24,-1103.15 708.78,-1142.53 691.83,-1172.25"/>
<polygon fill="black" stroke="black" points="688.67,-1170.74 686.75,-1181.16 694.75,-1174.2 688.67,-1170.74"/>
</g>
<!-- 2&#45;&gt;5 -->
<g id="edge4" class="edge">
<title>2&#45;&gt;5</title>
<path fill="none" stroke="black" d="M842.73,-1064.39C843.31,-1144.52 833.32,-1245.06 790.52,-1323.8 784.92,-1334.1 777.81,-1343.74 769.83,-1352.68"/>
<polygon fill="black" stroke="black" points="767.23,-1350.33 762.92,-1360.01 772.33,-1355.12 767.23,-1350.33"/>
</g>
<!-- 3 -->
<g id="node4" class="node">
<title>3</title>
<polygon fill="#f2f2f2" stroke="black" points="1016.88,-788.3 1016.88,-1064.3 1310.16,-1064.3 1310.16,-788.3 1016.88,-788.3"/>
<text text-anchor="middle" x="1163.52" y="-1047.7" font-family="Times,serif" font-size="14.00">FarmerRole</text>
<text text-anchor="middle" x="1163.52" y="-1030.9" font-family="Times,serif" font-size="14.00">contracts/coffeeaccesscontrol/FarmerRole.sol</text>
<polyline fill="none" stroke="black" points="1016.88,-1022.7 1310.16,-1022.7 "/>
<text text-anchor="start" x="1024.88" y="-1006.1" font-family="Times,serif" font-size="14.00">Private:</text>
<text text-anchor="start" x="1024.88" y="-989.3" font-family="Times,serif" font-size="14.00"> &#160;&#160;farmers: Roles.Role</text>
<polyline fill="none" stroke="black" points="1016.88,-981.1 1310.16,-981.1 "/>
<text text-anchor="start" x="1024.88" y="-964.5" font-family="Times,serif" font-size="14.00">Internal:</text>
<text text-anchor="start" x="1024.88" y="-947.7" font-family="Times,serif" font-size="14.00"> &#160;&#160;&#160;_addFarmer(account: address)</text>
<text text-anchor="start" x="1024.88" y="-930.9" font-family="Times,serif" font-size="14.00"> &#160;&#160;&#160;_removeFarmer(account: address)</text>
<text text-anchor="start" x="1024.88" y="-914.1" font-family="Times,serif" font-size="14.00">Public:</text>
<text text-anchor="start" x="1024.88" y="-897.3" font-family="Times,serif" font-size="14.00"> &#160;&#160;&#160;&lt;&lt;event&gt;&gt; FarmerAdded(account: address)</text>
<text text-anchor="start" x="1024.88" y="-880.5" font-family="Times,serif" font-size="14.00"> &#160;&#160;&#160;&lt;&lt;event&gt;&gt; FarmerRemoved(account: address)</text>
<text text-anchor="start" x="1024.88" y="-863.7" font-family="Times,serif" font-size="14.00"> &#160;&#160;&#160;&lt;&lt;modifier&gt;&gt; onlyFarmer()</text>
<text text-anchor="start" x="1024.88" y="-846.9" font-family="Times,serif" font-size="14.00"> &#160;&#160;&#160;constructor()</text>
<text text-anchor="start" x="1024.88" y="-830.1" font-family="Times,serif" font-size="14.00"> &#160;&#160;&#160;isFarmer(account: address): bool</text>
<text text-anchor="start" x="1024.88" y="-813.3" font-family="Times,serif" font-size="14.00"> &#160;&#160;&#160;addFarmer(account: address) &lt;&lt;onlyFarmer&gt;&gt;</text>
<text text-anchor="start" x="1024.88" y="-796.5" font-family="Times,serif" font-size="14.00"> &#160;&#160;&#160;renounceFarmer()</text>
</g>
<!-- 3&#45;&gt;6 -->
<g id="edge7" class="edge">
<title>3&#45;&gt;6</title>
<path fill="none" stroke="black" d="M1037.37,-1064.65C1027.96,-1072.3 1018.3,-1079.5 1008.52,-1086 942.33,-1129.96 859.76,-1163.12 792,-1185.68"/>
<polygon fill="black" stroke="black" points="790.52,-1182.48 782.12,-1188.93 792.71,-1189.13 790.52,-1182.48"/>
</g>
<!-- 3&#45;&gt;5 -->
<g id="edge6" class="edge">
<title>3&#45;&gt;5</title>
<path fill="none" stroke="black" d="M1065.55,-1064.44C1003.53,-1145.57 918.48,-1247.1 829.52,-1323.8 817.09,-1334.52 803.41,-1344.84 789.41,-1354.55"/>
<polygon fill="black" stroke="black" points="787.43,-1351.66 781.13,-1360.18 791.37,-1357.45 787.43,-1351.66"/>
</g>
<!-- 4 -->
<g id="node5" class="node">
<title>4</title>
<polygon fill="#f2f2f2" stroke="black" points="0,-788.3 0,-1064.3 301.04,-1064.3 301.04,-788.3 0,-788.3"/>
<text text-anchor="middle" x="150.52" y="-1047.7" font-family="Times,serif" font-size="14.00">RetailerRole</text>
<text text-anchor="middle" x="150.52" y="-1030.9" font-family="Times,serif" font-size="14.00">contracts/coffeeaccesscontrol/RetailerRole.sol</text>
<polyline fill="none" stroke="black" points="0,-1022.7 301.04,-1022.7 "/>
<text text-anchor="start" x="8" y="-1006.1" font-family="Times,serif" font-size="14.00">Private:</text>
<text text-anchor="start" x="8" y="-989.3" font-family="Times,serif" font-size="14.00"> &#160;&#160;retailers: Roles.Role</text>
<polyline fill="none" stroke="black" points="0,-981.1 301.04,-981.1 "/>
<text text-anchor="start" x="8" y="-964.5" font-family="Times,serif" font-size="14.00">Internal:</text>
<text text-anchor="start" x="8" y="-947.7" font-family="Times,serif" font-size="14.00"> &#160;&#160;&#160;_addRetailer(account: address)</text>
<text text-anchor="start" x="8" y="-930.9" font-family="Times,serif" font-size="14.00"> &#160;&#160;&#160;_removeRetailer(account: address)</text>
<text text-anchor="start" x="8" y="-914.1" font-family="Times,serif" font-size="14.00">Public:</text>
<text text-anchor="start" x="8" y="-897.3" font-family="Times,serif" font-size="14.00"> &#160;&#160;&#160;&lt;&lt;event&gt;&gt; RetailerAdded(account: address)</text>
<text text-anchor="start" x="8" y="-880.5" font-family="Times,serif" font-size="14.00"> &#160;&#160;&#160;&lt;&lt;event&gt;&gt; RetailerRemoved(account: address)</text>
<text text-anchor="start" x="8" y="-863.7" font-family="Times,serif" font-size="14.00"> &#160;&#160;&#160;&lt;&lt;modifier&gt;&gt; onlyRetailer()</text>
<text text-anchor="start" x="8" y="-846.9" font-family="Times,serif" font-size="14.00"> &#160;&#160;&#160;constructor()</text>
<text text-anchor="start" x="8" y="-830.1" font-family="Times,serif" font-size="14.00"> &#160;&#160;&#160;isRetailer(account: address): bool</text>
<text text-anchor="start" x="8" y="-813.3" font-family="Times,serif" font-size="14.00"> &#160;&#160;&#160;addRetailer(account: address) &lt;&lt;onlyRetailer&gt;&gt;</text>
<text text-anchor="start" x="8" y="-796.5" font-family="Times,serif" font-size="14.00"> &#160;&#160;&#160;renounceRetailer()</text>
</g>
<!-- 4&#45;&gt;6 -->
<g id="edge9" class="edge">
<title>4&#45;&gt;6</title>
<path fill="none" stroke="black" d="M279.58,-1064.33C289.36,-1072.11 299.38,-1079.42 309.52,-1086 378.88,-1131 465.39,-1164.55 535.52,-1187.06"/>
<polygon fill="black" stroke="black" points="534.72,-1190.48 545.31,-1190.17 536.83,-1183.81 534.72,-1190.48"/>
</g>
<!-- 4&#45;&gt;5 -->
<g id="edge8" class="edge">
<title>4&#45;&gt;5</title>
<path fill="none" stroke="black" d="M243.56,-1064.77C303.68,-1146.75 387.35,-1249.07 477.52,-1323.8 494.01,-1337.46 512.59,-1350.19 531.47,-1361.71"/>
<polygon fill="black" stroke="black" points="529.78,-1364.78 540.16,-1366.92 533.38,-1358.78 529.78,-1364.78"/>
</g>
<!-- 6&#45;&gt;5 -->
<g id="edge10" class="edge">
<title>6&#45;&gt;5</title>
<path fill="none" stroke="black" d="M657.97,-1264.82C656.88,-1288.64 656.53,-1319.48 656.92,-1347.79"/>
<polygon fill="black" stroke="black" points="656.93,-1348.17 661.04,-1354.1 657.15,-1360.17 653.04,-1354.24 656.93,-1348.17"/>
</g>
<!-- 5&#45;&gt;6 -->
<g id="edge11" class="edge">
<title>5&#45;&gt;6</title>
<path fill="none" stroke="black" stroke-dasharray="5,2" d="M669.89,-1360.17C670.51,-1332.56 670.37,-1300.95 669.48,-1275.13"/>
<polygon fill="black" stroke="black" points="672.96,-1274.67 669.07,-1264.82 665.97,-1274.95 672.96,-1274.67"/>
</g>
<!-- 8 -->
<g id="node8" class="node">
<title>8</title>
<polygon fill="#f2f2f2" stroke="black" points="1478.97,-1122.5 1478.97,-1323.3 1706.07,-1323.3 1706.07,-1122.5 1478.97,-1122.5"/>
<text text-anchor="middle" x="1592.52" y="-1306.7" font-family="Times,serif" font-size="14.00">&lt;&lt;Enum&gt;&gt;</text>
<text text-anchor="middle" x="1592.52" y="-1289.9" font-family="Times,serif" font-size="14.00">State</text>
<text text-anchor="middle" x="1592.52" y="-1273.1" font-family="Times,serif" font-size="14.00">contracts/coffeebase/SupplyChain.sol</text>
<polyline fill="none" stroke="black" points="1478.97,-1264.9 1706.07,-1264.9 "/>
<text text-anchor="start" x="1486.97" y="-1248.3" font-family="Times,serif" font-size="14.00">Harvested: 0</text>
<text text-anchor="start" x="1486.97" y="-1231.5" font-family="Times,serif" font-size="14.00">Processed: 1</text>
<text text-anchor="start" x="1486.97" y="-1214.7" font-family="Times,serif" font-size="14.00">Packed: 2</text>
<text text-anchor="start" x="1486.97" y="-1197.9" font-family="Times,serif" font-size="14.00">ForSale: 3</text>
<text text-anchor="start" x="1486.97" y="-1181.1" font-family="Times,serif" font-size="14.00">Sold: 4</text>
<text text-anchor="start" x="1486.97" y="-1164.3" font-family="Times,serif" font-size="14.00">Shipped: 5</text>
<text text-anchor="start" x="1486.97" y="-1147.5" font-family="Times,serif" font-size="14.00">Received: 6</text>
<text text-anchor="start" x="1486.97" y="-1130.7" font-family="Times,serif" font-size="14.00">Purchased: 7</text>
</g>
<!-- 7 -->
<g id="node10" class="node">
<title>7</title>
<polygon fill="#f2f2f2" stroke="black" points="519.02,-0.5 519.02,-730.1 1808.02,-730.1 1808.02,-0.5 519.02,-0.5"/>
<text text-anchor="middle" x="1163.52" y="-713.5" font-family="Times,serif" font-size="14.00">SupplyChain</text>
<text text-anchor="middle" x="1163.52" y="-696.7" font-family="Times,serif" font-size="14.00">contracts/coffeebase/SupplyChain.sol</text>
<polyline fill="none" stroke="black" points="519.02,-688.5 1808.02,-688.5 "/>
<text text-anchor="start" x="527.02" y="-671.9" font-family="Times,serif" font-size="14.00">Public:</text>
<text text-anchor="start" x="527.02" y="-655.1" font-family="Times,serif" font-size="14.00"> &#160;&#160;upc: uint</text>
<text text-anchor="start" x="527.02" y="-638.3" font-family="Times,serif" font-size="14.00"> &#160;&#160;sku: uint</text>
<text text-anchor="start" x="527.02" y="-621.5" font-family="Times,serif" font-size="14.00"> &#160;&#160;items: mapping(uint=&gt;Item)</text>
<text text-anchor="start" x="527.02" y="-604.7" font-family="Times,serif" font-size="14.00"> &#160;&#160;itemsHistory: mapping(uint=&gt;string[])</text>
<text text-anchor="start" x="527.02" y="-587.9" font-family="Times,serif" font-size="14.00"> &#160;&#160;uniqueItems: mapping(uint=&gt;bool)</text>
<text text-anchor="start" x="527.02" y="-571.1" font-family="Times,serif" font-size="14.00"> &#160;&#160;defaultState: State</text>
<polyline fill="none" stroke="black" points="519.02,-562.9 1808.02,-562.9 "/>
<text text-anchor="start" x="527.02" y="-546.3" font-family="Times,serif" font-size="14.00">Public:</text>
<text text-anchor="start" x="527.02" y="-529.5" font-family="Times,serif" font-size="14.00"> &#160;&#160;&#160;&lt;&lt;payable&gt;&gt; buyItem(_upc: uint) &lt;&lt;onlyDistributor, forSale, paidEnough, checkValue&gt;&gt;</text>
<text text-anchor="start" x="527.02" y="-512.7" font-family="Times,serif" font-size="14.00"> &#160;&#160;&#160;&lt;&lt;event&gt;&gt; Harvested(upc: uint)</text>
<text text-anchor="start" x="527.02" y="-495.9" font-family="Times,serif" font-size="14.00"> &#160;&#160;&#160;&lt;&lt;event&gt;&gt; Processed(upc: uint)</text>
<text text-anchor="start" x="527.02" y="-479.1" font-family="Times,serif" font-size="14.00"> &#160;&#160;&#160;&lt;&lt;event&gt;&gt; Packed(upc: uint)</text>
<text text-anchor="start" x="527.02" y="-462.3" font-family="Times,serif" font-size="14.00"> &#160;&#160;&#160;&lt;&lt;event&gt;&gt; ForSale(upc: uint)</text>
<text text-anchor="start" x="527.02" y="-445.5" font-family="Times,serif" font-size="14.00"> &#160;&#160;&#160;&lt;&lt;event&gt;&gt; Sold(upc: uint)</text>
<text text-anchor="start" x="527.02" y="-428.7" font-family="Times,serif" font-size="14.00"> &#160;&#160;&#160;&lt;&lt;event&gt;&gt; Shipped(upc: uint)</text>
<text text-anchor="start" x="527.02" y="-411.9" font-family="Times,serif" font-size="14.00"> &#160;&#160;&#160;&lt;&lt;event&gt;&gt; Received(upc: uint)</text>
<text text-anchor="start" x="527.02" y="-395.1" font-family="Times,serif" font-size="14.00"> &#160;&#160;&#160;&lt;&lt;event&gt;&gt; Purchased(upc: uint)</text>
<text text-anchor="start" x="527.02" y="-378.3" font-family="Times,serif" font-size="14.00"> &#160;&#160;&#160;&lt;&lt;modifier&gt;&gt; verifyCaller(_address: address)</text>
<text text-anchor="start" x="527.02" y="-361.5" font-family="Times,serif" font-size="14.00"> &#160;&#160;&#160;&lt;&lt;modifier&gt;&gt; paidEnough(_price: uint)</text>
<text text-anchor="start" x="527.02" y="-344.7" font-family="Times,serif" font-size="14.00"> &#160;&#160;&#160;&lt;&lt;modifier&gt;&gt; checkValue(_upc: uint)</text>
<text text-anchor="start" x="527.02" y="-327.9" font-family="Times,serif" font-size="14.00"> &#160;&#160;&#160;&lt;&lt;modifier&gt;&gt; harvested(_upc: uint)</text>
<text text-anchor="start" x="527.02" y="-311.1" font-family="Times,serif" font-size="14.00"> &#160;&#160;&#160;&lt;&lt;modifier&gt;&gt; processed(_upc: uint)</text>
<text text-anchor="start" x="527.02" y="-294.3" font-family="Times,serif" font-size="14.00"> &#160;&#160;&#160;&lt;&lt;modifier&gt;&gt; packed(_upc: uint)</text>
<text text-anchor="start" x="527.02" y="-277.5" font-family="Times,serif" font-size="14.00"> &#160;&#160;&#160;&lt;&lt;modifier&gt;&gt; forSale(_upc: uint)</text>
<text text-anchor="start" x="527.02" y="-260.7" font-family="Times,serif" font-size="14.00"> &#160;&#160;&#160;&lt;&lt;modifier&gt;&gt; sold(_upc: uint)</text>
<text text-anchor="start" x="527.02" y="-243.9" font-family="Times,serif" font-size="14.00"> &#160;&#160;&#160;&lt;&lt;modifier&gt;&gt; shipped(_upc: uint)</text>
<text text-anchor="start" x="527.02" y="-227.1" font-family="Times,serif" font-size="14.00"> &#160;&#160;&#160;&lt;&lt;modifier&gt;&gt; received(_upc: uint)</text>
<text text-anchor="start" x="527.02" y="-210.3" font-family="Times,serif" font-size="14.00"> &#160;&#160;&#160;&lt;&lt;modifier&gt;&gt; purchased(_upc: uint)</text>
<text text-anchor="start" x="527.02" y="-193.5" font-family="Times,serif" font-size="14.00"> &#160;&#160;&#160;constructor()</text>
<text text-anchor="start" x="527.02" y="-176.7" font-family="Times,serif" font-size="14.00"> &#160;&#160;&#160;kill()</text>
<text text-anchor="start" x="527.02" y="-159.9" font-family="Times,serif" font-size="14.00"> &#160;&#160;&#160;harvestItem(_upc: uint, _originFarmerID: address, _originFarmName: string, _originFarmInformation: string, _originFarmLatitude: string, _originFarmLongitude: string, _productNotes: string) &lt;&lt;onlyFarmer&gt;&gt;</text>
<text text-anchor="start" x="527.02" y="-143.1" font-family="Times,serif" font-size="14.00"> &#160;&#160;&#160;checkIfUpcExist(_upc: uint): bool</text>
<text text-anchor="start" x="527.02" y="-126.3" font-family="Times,serif" font-size="14.00"> &#160;&#160;&#160;processItem(_upc: uint) &lt;&lt;harvested, verifyCaller&gt;&gt;</text>
<text text-anchor="start" x="527.02" y="-109.5" font-family="Times,serif" font-size="14.00"> &#160;&#160;&#160;packItem(_upc: uint) &lt;&lt;processed, verifyCaller&gt;&gt;</text>
<text text-anchor="start" x="527.02" y="-92.7" font-family="Times,serif" font-size="14.00"> &#160;&#160;&#160;sellItem(_upc: uint, _price: uint) &lt;&lt;packed, verifyCaller&gt;&gt;</text>
<text text-anchor="start" x="527.02" y="-75.9" font-family="Times,serif" font-size="14.00"> &#160;&#160;&#160;shipItem(_upc: uint) &lt;&lt;onlyDistributor, sold, verifyCaller&gt;&gt;</text>
<text text-anchor="start" x="527.02" y="-59.1" font-family="Times,serif" font-size="14.00"> &#160;&#160;&#160;receiveItem(_upc: uint) &lt;&lt;onlyRetailer, shipped&gt;&gt;</text>
<text text-anchor="start" x="527.02" y="-42.3" font-family="Times,serif" font-size="14.00"> &#160;&#160;&#160;purchaseItem(_upc: uint) &lt;&lt;onlyConsumer, received&gt;&gt;</text>
<text text-anchor="start" x="527.02" y="-25.5" font-family="Times,serif" font-size="14.00"> &#160;&#160;&#160;fetchItemBufferOne(_upc: uint): (itemSKU: uint, itemUPC: uint, ownerID: address, originFarmerID: address, originFarmName: string, originFarmInformation: string, originFarmLatitude: string, originFarmLongitude: string)</text>
<text text-anchor="start" x="527.02" y="-8.7" font-family="Times,serif" font-size="14.00"> &#160;&#160;&#160;fetchItemBufferTwo(_upc: uint): (itemSKU: uint, itemUPC: uint, productID: uint, productNotes: string, productPrice: uint, itemState: uint, distributorID: address, retailerID: address, consumerID: address)</text>
</g>
<!-- 8&#45;&gt;7 -->
<g id="edge13" class="edge">
<title>8&#45;&gt;7</title>
<path fill="none" stroke="black" d="M1612.96,-1122.05C1623.59,-1026.43 1624.82,-880.29 1573.52,-766.6 1569.61,-757.93 1565.42,-749.35 1560.98,-740.85"/>
<polygon fill="black" stroke="black" points="1560.91,-740.71 1554.54,-737.32 1555.23,-730.14 1561.59,-733.53 1560.91,-740.71"/>
</g>
<!-- 9 -->
<g id="node9" class="node">
<title>9</title>
<polygon fill="#f2f2f2" stroke="black" points="1327.97,-767.1 1327.97,-1085.5 1555.07,-1085.5 1555.07,-767.1 1327.97,-767.1"/>
<text text-anchor="middle" x="1441.52" y="-1068.9" font-family="Times,serif" font-size="14.00">&lt;&lt;Struct&gt;&gt;</text>
<text text-anchor="middle" x="1441.52" y="-1052.1" font-family="Times,serif" font-size="14.00">Item</text>
<text text-anchor="middle" x="1441.52" y="-1035.3" font-family="Times,serif" font-size="14.00">contracts/coffeebase/SupplyChain.sol</text>
<polyline fill="none" stroke="black" points="1327.97,-1027.1 1555.07,-1027.1 "/>
<text text-anchor="start" x="1335.97" y="-1010.5" font-family="Times,serif" font-size="14.00">sku: uint</text>
<text text-anchor="start" x="1335.97" y="-993.7" font-family="Times,serif" font-size="14.00">upc: uint</text>
<text text-anchor="start" x="1335.97" y="-976.9" font-family="Times,serif" font-size="14.00">ownerID: address</text>
<text text-anchor="start" x="1335.97" y="-960.1" font-family="Times,serif" font-size="14.00">originFarmerID: address</text>
<text text-anchor="start" x="1335.97" y="-943.3" font-family="Times,serif" font-size="14.00">originFarmName: string</text>
<text text-anchor="start" x="1335.97" y="-926.5" font-family="Times,serif" font-size="14.00">originFarmInformation: string</text>
<text text-anchor="start" x="1335.97" y="-909.7" font-family="Times,serif" font-size="14.00">originFarmLatitude: string</text>
<text text-anchor="start" x="1335.97" y="-892.9" font-family="Times,serif" font-size="14.00">originFarmLongitude: string</text>
<text text-anchor="start" x="1335.97" y="-876.1" font-family="Times,serif" font-size="14.00">productID: uint</text>
<text text-anchor="start" x="1335.97" y="-859.3" font-family="Times,serif" font-size="14.00">productNotes: string</text>
<text text-anchor="start" x="1335.97" y="-842.5" font-family="Times,serif" font-size="14.00">productPrice: uint</text>
<text text-anchor="start" x="1335.97" y="-825.7" font-family="Times,serif" font-size="14.00">itemState: State</text>
<text text-anchor="start" x="1335.97" y="-808.9" font-family="Times,serif" font-size="14.00">distributorID: address</text>
<text text-anchor="start" x="1335.97" y="-792.1" font-family="Times,serif" font-size="14.00">retailerID: address</text>
<text text-anchor="start" x="1335.97" y="-775.3" font-family="Times,serif" font-size="14.00">consumerID: address</text>
</g>
<!-- 9&#45;&gt;8 -->
<g id="edge12" class="edge">
<title>9&#45;&gt;8</title>
<path fill="none" stroke="black" stroke-dasharray="5,2" d="M1522.77,-1085.81C1527.53,-1095.11 1532.26,-1104.34 1536.89,-1113.37"/>
<polygon fill="black" stroke="black" points="1533.8,-1115.01 1541.48,-1122.32 1540.03,-1111.82 1533.8,-1115.01"/>
</g>
<!-- 9&#45;&gt;7 -->
<g id="edge14" class="edge">
<title>9&#45;&gt;7</title>
<path fill="none" stroke="black" d="M1368.99,-767.09C1364.85,-758.58 1360.6,-749.88 1356.27,-741.04"/>
<polygon fill="black" stroke="black" points="1356.23,-740.96 1350,-737.33 1350.95,-730.18 1357.18,-733.81 1356.23,-740.96"/>
</g>
<!-- 7&#45;&gt;1 -->
<g id="edge18" class="edge">
<title>7&#45;&gt;1</title>
<path fill="none" stroke="black" d="M697.66,-730.23C683.05,-742.42 668.64,-754.57 654.52,-766.6 653.88,-767.15 653.24,-767.69 652.6,-768.24"/>
<polygon fill="none" stroke="black" points="645.39,-760.59 629.61,-788.19 659.15,-776.45 645.39,-760.59"/>
</g>
<!-- 7&#45;&gt;2 -->
<g id="edge16" class="edge">
<title>7&#45;&gt;2</title>
<path fill="none" stroke="black" d="M947.4,-730.18C940.97,-741.01 934.65,-751.65 928.48,-762.04"/>
<polygon fill="none" stroke="black" points="919.32,-756.9 913.03,-788.06 937.38,-767.62 919.32,-756.9"/>
</g>
<!-- 7&#45;&gt;3 -->
<g id="edge15" class="edge">
<title>7&#45;&gt;3</title>
<path fill="none" stroke="black" d="M1163.52,-730.18C1163.52,-739.6 1163.52,-748.88 1163.52,-757.96"/>
<polygon fill="none" stroke="black" points="1153.02,-758.06 1163.52,-788.06 1174.02,-758.06 1153.02,-758.06"/>
</g>
<!-- 7&#45;&gt;4 -->
<g id="edge17" class="edge">
<title>7&#45;&gt;4</title>
<path fill="none" stroke="black" d="M518.78,-727.62C516.02,-728.62 513.27,-729.62 510.52,-730.6 425.05,-761.13 389.98,-724.62 309.52,-766.6 306.49,-768.18 303.48,-769.84 300.49,-771.57"/>
<polygon fill="none" stroke="black" points="294.64,-762.85 275.33,-788.09 306.17,-780.4 294.64,-762.85"/>
</g>
<!-- 7&#45;&gt;8 -->
<g id="edge21" class="edge">
<title>7&#45;&gt;8</title>
<path fill="none" stroke="black" d="M1537.23,-730.14C1543.83,-742.11 1549.96,-754.27 1555.52,-766.6 1605.01,-876.3 1605.61,-1016.19 1599.81,-1111.78"/>
<polygon fill="black" stroke="black" points="1596.3,-1111.85 1599.15,-1122.05 1603.28,-1112.3 1596.3,-1111.85"/>
</g>
<!-- 7&#45;&gt;9 -->
<g id="edge20" class="edge">
<title>7&#45;&gt;9</title>
<path fill="none" stroke="black" d="M1338.01,-730.18C1342.78,-739.63 1347.48,-748.93 1352.1,-758.05"/>
<polygon fill="black" stroke="black" points="1349.05,-759.76 1356.69,-767.09 1355.29,-756.59 1349.05,-759.76"/>
</g>
<!-- 10 -->
<g id="node11" class="node">
<title>10</title>
<polygon fill="#f2f2f2" stroke="black" points="1629.15,-796.7 1629.15,-1055.9 2065.88,-1055.9 2065.88,-796.7 1629.15,-796.7"/>
<text text-anchor="middle" x="1847.52" y="-1039.3" font-family="Times,serif" font-size="14.00">Ownable</text>
<text text-anchor="middle" x="1847.52" y="-1022.5" font-family="Times,serif" font-size="14.00">contracts/coffeecore/Ownable.sol</text>
<polyline fill="none" stroke="black" points="1629.15,-1014.3 2065.88,-1014.3 "/>
<text text-anchor="start" x="1637.15" y="-997.7" font-family="Times,serif" font-size="14.00">Private:</text>
<text text-anchor="start" x="1637.15" y="-980.9" font-family="Times,serif" font-size="14.00"> &#160;&#160;origOwner: address</text>
<polyline fill="none" stroke="black" points="1629.15,-972.7 2065.88,-972.7 "/>
<text text-anchor="start" x="1637.15" y="-956.1" font-family="Times,serif" font-size="14.00">Internal:</text>
<text text-anchor="start" x="1637.15" y="-939.3" font-family="Times,serif" font-size="14.00"> &#160;&#160;&#160;_transferOwnership(newOwner: address)</text>
<text text-anchor="start" x="1637.15" y="-922.5" font-family="Times,serif" font-size="14.00">Public:</text>
<text text-anchor="start" x="1637.15" y="-905.7" font-family="Times,serif" font-size="14.00"> &#160;&#160;&#160;&lt;&lt;event&gt;&gt; TransferOwnership(oldOwner: address, newOwner: address)</text>
<text text-anchor="start" x="1637.15" y="-888.9" font-family="Times,serif" font-size="14.00"> &#160;&#160;&#160;&lt;&lt;modifier&gt;&gt; onlyOwner()</text>
<text text-anchor="start" x="1637.15" y="-872.1" font-family="Times,serif" font-size="14.00"> &#160;&#160;&#160;constructor()</text>
<text text-anchor="start" x="1637.15" y="-855.3" font-family="Times,serif" font-size="14.00"> &#160;&#160;&#160;owner(): address</text>
<text text-anchor="start" x="1637.15" y="-838.5" font-family="Times,serif" font-size="14.00"> &#160;&#160;&#160;isOwner(): bool</text>
<text text-anchor="start" x="1637.15" y="-821.7" font-family="Times,serif" font-size="14.00"> &#160;&#160;&#160;renounceOwnership() &lt;&lt;onlyOwner&gt;&gt;</text>
<text text-anchor="start" x="1637.15" y="-804.9" font-family="Times,serif" font-size="14.00"> &#160;&#160;&#160;transferOwnership(newOwner: address) &lt;&lt;onlyOwner&gt;&gt;</text>
</g>
<!-- 7&#45;&gt;10 -->
<g id="edge19" class="edge">
<title>7&#45;&gt;10</title>
<path fill="none" stroke="black" d="M1608.77,-730.18C1628.63,-746.41 1647.98,-762.22 1666.51,-777.37"/>
<polygon fill="none" stroke="black" points="1660.07,-785.67 1689.95,-796.52 1673.36,-769.41 1660.07,-785.67"/>
</g>
</g>
</svg>
